HIERARCHY
ROOT mixamorig:Hips
{
	OFFSET -0.000008 104.274872 1.554316
	CHANNELS 6 Xposition Yposition Zposition Xrotation Yrotation Zrotation
	JOINT mixamorig:Spine
	{
		OFFSET -0.000005 10.181595 0.131519
		CHANNELS 6 Xposition Yposition Zposition Xrotation Yrotation Zrotation
		JOINT mixamorig:Spine1
		{
			OFFSET -0.000000 9.893959 -1.470707
			CHANNELS 6 Xposition Yposition Zposition Xrotation Yrotation Zrotation
			JOINT mixamorig:Spine2
			{
				OFFSET -0.000000 9.220757 -1.370641
				CHANNELS 6 Xposition Yposition Zposition Xrotation Yrotation Zrotation
				JOINT mixamorig:Neck
				{
					OFFSET 0.000001 16.740417 -2.049036
					CHANNELS 6 Xposition Yposition Zposition Xrotation Yrotation Zrotation
					JOINT mixamorig:Head
					{
						OFFSET 0.000000 9.617874 1.685006
						CHANNELS 6 Xposition Yposition Zposition Xrotation Yrotation Zrotation
						JOINT mixamorig:HeadTop_End
						{
							OFFSET 0.000002 22.037354 7.501101
							CHANNELS 6 Xposition Yposition Zposition Xrotation Yrotation Zrotation
							End Site
							{
								OFFSET 0.000168 2310.654297 -282.823242
							}
						}
					}
				}
				JOINT mixamorig:RightShoulder
				{
					OFFSET -4.569970 11.014908 -2.160885
					CHANNELS 6 Xposition Yposition Zposition Xrotation Yrotation Zrotation
					JOINT mixamorig:RightArm
					{
						OFFSET -10.592851 -0.524811 -2.232101
						CHANNELS 6 Xposition Yposition Zposition Xrotation Yrotation Zrotation
						JOINT mixamorig:RightForeArm
						{
							OFFSET -27.841511 0.000031 -0.000004
							CHANNELS 6 Xposition Yposition Zposition Xrotation Yrotation Zrotation
							JOINT mixamorig:RightHand
							{
								OFFSET -28.328831 -0.000015 0.000015
								CHANNELS 6 Xposition Yposition Zposition Xrotation Yrotation Zrotation
								JOINT mixamorig:RightHandThumb1
								{
									OFFSET -2.464806 -1.573990 2.681852
									CHANNELS 6 Xposition Yposition Zposition Xrotation Yrotation Zrotation
									JOINT mixamorig:RightHandThumb2
									{
										OFFSET -3.215179 -1.872803 1.924282
										CHANNELS 6 Xposition Yposition Zposition Xrotation Yrotation Zrotation
										JOINT mixamorig:RightHandThumb3
										{
											OFFSET -2.654831 -1.527969 1.512609
											CHANNELS 6 Xposition Yposition Zposition Xrotation Yrotation Zrotation
											JOINT mixamorig:RightHandThumb4
											{
												OFFSET -2.018814 -1.152008 1.108052
												CHANNELS 6 Xposition Yposition Zposition Xrotation Yrotation Zrotation
												End Site
												{
													OFFSET -188.809540 -114.533607 132.431396
												}
											}
										}
									}
								}
								JOINT mixamorig:RightHandIndex1
								{
									OFFSET -9.108284 -0.517868 2.259835
									CHANNELS 6 Xposition Yposition Zposition Xrotation Yrotation Zrotation
									JOINT mixamorig:RightHandIndex2
									{
										OFFSET -3.699989 0.000000 0.001215
										CHANNELS 6 Xposition Yposition Zposition Xrotation Yrotation Zrotation
										JOINT mixamorig:RightHandIndex3
										{
											OFFSET -2.850006 0.000031 -0.000522
											CHANNELS 6 Xposition Yposition Zposition Xrotation Yrotation Zrotation
											JOINT mixamorig:RightHandIndex4
											{
												OFFSET -2.772186 -0.000015 -0.000020
												CHANNELS 6 Xposition Yposition Zposition Xrotation Yrotation Zrotation
												End Site
												{
													OFFSET -277.218445 0.000000 -0.050231
												}
											}
										}
									}
								}
								JOINT mixamorig:RightHandMiddle1
								{
									OFFSET -9.532516 -0.000031 -0.000023
									CHANNELS 6 Xposition Yposition Zposition Xrotation Yrotation Zrotation
									JOINT mixamorig:RightHandMiddle2
									{
										OFFSET -3.700005 -0.000015 0.003713
										CHANNELS 6 Xposition Yposition Zposition Xrotation Yrotation Zrotation
										JOINT mixamorig:RightHandMiddle3
										{
											OFFSET -2.949974 0.000015 -0.002054
											CHANNELS 6 Xposition Yposition Zposition Xrotation Yrotation Zrotation
											JOINT mixamorig:RightHandMiddle4
											{
												OFFSET -2.946640 0.000000 -0.000156
												CHANNELS 6 Xposition Yposition Zposition Xrotation Yrotation Zrotation
												End Site
												{
													OFFSET -294.664337 0.000000 -0.113670
												}
											}
										}
									}
								}
								JOINT mixamorig:RightHandRing1
								{
									OFFSET -9.103600 -0.043076 -1.865134
									CHANNELS 6 Xposition Yposition Zposition Xrotation Yrotation Zrotation
									JOINT mixamorig:RightHandRing2
									{
										OFFSET -3.379288 0.000000 -0.001055
										CHANNELS 6 Xposition Yposition Zposition Xrotation Yrotation Zrotation
										JOINT mixamorig:RightHandRing3
										{
											OFFSET -2.889687 -0.000015 0.000379
											CHANNELS 6 Xposition Yposition Zposition Xrotation Yrotation Zrotation
											JOINT mixamorig:RightHandRing4
											{
												OFFSET -2.638809 -0.000015 0.000941
												CHANNELS 6 Xposition Yposition Zposition Xrotation Yrotation Zrotation
												End Site
												{
													OFFSET -263.880371 0.000000 0.516020
												}
											}
										}
									}
								}
								JOINT mixamorig:RightHandPinky1
								{
									OFFSET -8.076683 -0.486710 -3.806280
									CHANNELS 6 Xposition Yposition Zposition Xrotation Yrotation Zrotation
									JOINT mixamorig:RightHandPinky2
									{
										OFFSET -3.600014 -0.000015 -0.003747
										CHANNELS 6 Xposition Yposition Zposition Xrotation Yrotation Zrotation
										JOINT mixamorig:RightHandPinky3
										{
											OFFSET -2.099983 0.000000 -0.005739
											CHANNELS 6 Xposition Yposition Zposition Xrotation Yrotation Zrotation
											JOINT mixamorig:RightHandPinky4
											{
												OFFSET -2.115768 -0.000031 -0.003680
												CHANNELS 6 Xposition Yposition Zposition Xrotation Yrotation Zrotation
												End Site
												{
													OFFSET -211.577087 0.000000 -0.350686
												}
											}
										}
									}
								}
							}
						}
					}
				}
				JOINT mixamorig:LeftShoulder
				{
					OFFSET 4.570447 11.014725 -2.160855
					CHANNELS 6 Xposition Yposition Zposition Xrotation Yrotation Zrotation
					JOINT mixamorig:LeftArm
					{
						OFFSET 10.592371 -0.524597 -2.232119
						CHANNELS 6 Xposition Yposition Zposition Xrotation Yrotation Zrotation
						JOINT mixamorig:LeftForeArm
						{
							OFFSET 27.841532 -0.000031 0.000026
							CHANNELS 6 Xposition Yposition Zposition Xrotation Yrotation Zrotation
							JOINT mixamorig:LeftHand
							{
								OFFSET 28.328846 -0.000061 0.000022
								CHANNELS 6 Xposition Yposition Zposition Xrotation Yrotation Zrotation
								JOINT mixamorig:LeftHandThumb1
								{
									OFFSET 2.466141 -1.576172 2.681732
									CHANNELS 6 Xposition Yposition Zposition Xrotation Yrotation Zrotation
									JOINT mixamorig:LeftHandThumb2
									{
										OFFSET 3.217812 -1.872070 1.916482
										CHANNELS 6 Xposition Yposition Zposition Xrotation Yrotation Zrotation
										JOINT mixamorig:LeftHandThumb3
										{
											OFFSET 2.656029 -1.528778 1.514513
											CHANNELS 6 Xposition Yposition Zposition Xrotation Yrotation Zrotation
											JOINT mixamorig:LeftHandThumb4
											{
												OFFSET 2.020889 -1.154053 1.115139
												CHANNELS 6 Xposition Yposition Zposition Xrotation Yrotation Zrotation
												End Site
												{
													OFFSET 190.885437 -115.081749 130.048782
												}
											}
										}
									}
								}
								JOINT mixamorig:LeftHandIndex1
								{
									OFFSET 9.109314 -0.518021 2.259871
									CHANNELS 6 Xposition Yposition Zposition Xrotation Yrotation Zrotation
									JOINT mixamorig:LeftHandIndex2
									{
										OFFSET 3.699989 0.000000 -0.000322
										CHANNELS 6 Xposition Yposition Zposition Xrotation Yrotation Zrotation
										JOINT mixamorig:LeftHandIndex3
										{
											OFFSET 2.850006 0.000000 0.000352
											CHANNELS 6 Xposition Yposition Zposition Xrotation Yrotation Zrotation
											JOINT mixamorig:LeftHandIndex4
											{
												OFFSET 2.774864 -0.000031 -0.000027
												CHANNELS 6 Xposition Yposition Zposition Xrotation Yrotation Zrotation
												End Site
												{
													OFFSET 277.486267 0.000000 -0.009857
												}
											}
										}
									}
								}
								JOINT mixamorig:LeftHandMiddle1
								{
									OFFSET 9.533394 0.000061 0.000044
									CHANNELS 6 Xposition Yposition Zposition Xrotation Yrotation Zrotation
									JOINT mixamorig:LeftHandMiddle2
									{
										OFFSET 3.699989 -0.000015 -0.000231
										CHANNELS 6 Xposition Yposition Zposition Xrotation Yrotation Zrotation
										JOINT mixamorig:LeftHandMiddle3
										{
											OFFSET 2.949997 -0.000015 -0.000059
											CHANNELS 6 Xposition Yposition Zposition Xrotation Yrotation Zrotation
											JOINT mixamorig:LeftHandMiddle4
											{
												OFFSET 2.952896 0.000031 0.000063
												CHANNELS 6 Xposition Yposition Zposition Xrotation Yrotation Zrotation
												End Site
												{
													OFFSET 295.289337 0.000000 0.022810
												}
											}
										}
									}
								}
								JOINT mixamorig:LeftHandRing1
								{
									OFFSET 9.104523 -0.042999 -1.865074
									CHANNELS 6 Xposition Yposition Zposition Xrotation Yrotation Zrotation
									JOINT mixamorig:LeftHandRing2
									{
										OFFSET 3.150009 -0.000031 0.000043
										CHANNELS 6 Xposition Yposition Zposition Xrotation Yrotation Zrotation
										JOINT mixamorig:LeftHandRing3
										{
											OFFSET 2.949982 -0.000015 0.000040
											CHANNELS 6 Xposition Yposition Zposition Xrotation Yrotation Zrotation
											JOINT mixamorig:LeftHandRing4
											{
												OFFSET 2.644348 0.000000 0.000057
												CHANNELS 6 Xposition Yposition Zposition Xrotation Yrotation Zrotation
												End Site
												{
													OFFSET 264.434631 0.000000 0.012105
												}
											}
										}
									}
								}
								JOINT mixamorig:LeftHandPinky1
								{
									OFFSET 8.077789 -0.486847 -3.806259
									CHANNELS 6 Xposition Yposition Zposition Xrotation Yrotation Zrotation
									JOINT mixamorig:LeftHandPinky2
									{
										OFFSET 3.599953 0.000031 0.014727
										CHANNELS 6 Xposition Yposition Zposition Xrotation Yrotation Zrotation
										JOINT mixamorig:LeftHandPinky3
										{
											OFFSET 2.100021 0.000015 0.007705
											CHANNELS 6 Xposition Yposition Zposition Xrotation Yrotation Zrotation
											JOINT mixamorig:LeftHandPinky4
											{
												OFFSET 2.125504 0.000031 0.007517
												CHANNELS 6 Xposition Yposition Zposition Xrotation Yrotation Zrotation
												End Site
												{
													OFFSET 212.550781 0.000000 0.625752
												}
											}
										}
									}
								}
							}
						}
					}
				}
			}
		}
	}
	JOINT mixamorig:RightUpLeg
	{
		OFFSET -8.207787 -6.751648 -1.599560
		CHANNELS 6 Xposition Yposition Zposition Xrotation Yrotation Zrotation
		JOINT mixamorig:RightLeg
		{
			OFFSET -0.000002 -44.370117 0.345942
			CHANNELS 6 Xposition Yposition Zposition Xrotation Yrotation Zrotation
			JOINT mixamorig:RightFoot
			{
				OFFSET 0.000003 -44.423679 -3.043532
				CHANNELS 6 Xposition Yposition Zposition Xrotation Yrotation Zrotation
				JOINT mixamorig:RightToeBase
				{
					OFFSET -0.000002 -8.728671 10.710558
					CHANNELS 6 Xposition Yposition Zposition Xrotation Yrotation Zrotation
					JOINT mixamorig:RightToe_End
					{
						OFFSET -0.000001 -0.000679 9.278119
						CHANNELS 6 Xposition Yposition Zposition Xrotation Yrotation Zrotation
						End Site
						{
							OFFSET 0.000000 -0.067690 927.812134
						}
					}
				}
			}
		}
	}
	JOINT mixamorig:LeftUpLeg
	{
		OFFSET 8.207793 -6.751686 -1.599556
		CHANNELS 6 Xposition Yposition Zposition Xrotation Yrotation Zrotation
		JOINT mixamorig:LeftLeg
		{
			OFFSET -0.000004 -44.370014 0.346954
			CHANNELS 6 Xposition Yposition Zposition Xrotation Yrotation Zrotation
			JOINT mixamorig:LeftFoot
			{
				OFFSET -0.000001 -44.423672 -3.044401
				CHANNELS 6 Xposition Yposition Zposition Xrotation Yrotation Zrotation
				JOINT mixamorig:LeftToeBase
				{
					OFFSET -0.000002 -8.728669 10.710558
					CHANNELS 6 Xposition Yposition Zposition Xrotation Yrotation Zrotation
					JOINT mixamorig:LeftToe_End
					{
						OFFSET -0.000003 -0.000679 9.278133
						CHANNELS 6 Xposition Yposition Zposition Xrotation Yrotation Zrotation
						End Site
						{
							OFFSET 0.000000 -0.068021 927.813477
						}
					}
				}
			}
		}
	}
}
MOTION
Frames: 3
Frame Time: 0.033333
0.000006 104.270477 1.554256 0.000010 0.000003 -0.000113 -0.000005 10.181587 0.131522 0.000001 -0.000003 0.000084 -0.000000 9.893967 -1.470711 0.000001 0.000000 -0.000000 -0.000000 9.220802 -1.370642 0.000000 -0.000000 -0.000000 0.000001 16.740433 -2.049030 0.000000 -0.000000 -0.000000 0.000000 9.617859 1.685014 0.000000 0.000000 0.000000 0.000002 22.037384 7.501101 0.000000 -0.000000 0.000000 -4.569968 11.014880 -2.160881 0.000008 0.000001 -0.000038 -10.592868 -0.524673 -2.232025 72.038142 7.546516 -5.490453 -27.841534 0.000011 0.000536 -55.443548 115.601321 79.689648 -28.328859 0.000022 0.000024 -0.000318 -0.000044 0.000007 -2.464441 -1.573714 2.682332 -50.506179 -173.432874 -17.608453 -3.215282 -1.872581 1.924654 154.774873 31.256575 1.553272 -2.654966 -1.527889 1.513089 149.550721 26.477744 -36.579385 -2.018826 -1.152013 1.108064 -0.000003 -0.000001 0.000002 -9.108377 -0.517556 2.260132 98.769521 16.914782 -19.727610 -3.700071 0.000303 0.001521 95.089142 15.671326 -17.081972 -2.850102 0.000341 -0.000249 94.073985 12.726266 -13.655353 -2.772168 -0.000016 -0.000025 0.000003 -0.000002 0.000002 -9.532570 0.000280 0.000246 95.683300 14.286577 -15.915189 -3.700074 0.000326 0.003964 93.726226 11.955961 -12.652773 -2.950058 0.000337 -0.001837 91.852022 11.268201 -11.628651 -2.946609 -0.000015 -0.000160 0.000005 -0.000001 0.000000 -9.103685 -0.042749 -1.864877 94.878431 15.038154 -16.311422 -3.379317 0.000323 -0.000827 92.522665 8.846580 -9.261173 -2.889741 0.000363 0.000638 93.348516 6.373606 -6.804447 -2.638819 -0.000015 0.000942 -0.000001 0.000000 -0.000002 -8.076740 -0.486374 -3.806005 90.928403 15.302711 -15.399298 -3.600032 0.000295 -0.003491 93.809301 7.509662 -7.650116 -2.100011 0.000313 -0.005489 93.920039 5.019266 -5.141710 -2.115762 -0.000030 -0.003682 -0.000001 0.000000 -0.000003 4.570446 11.014691 -2.160851 -0.000018 0.000010 -0.000021 10.592360 -0.524545 -2.232272 66.882066 11.701425 -7.742811 27.841845 0.000119 -0.000228 107.224312 -63.308538 79.830930 28.328848 -0.000042 0.000016 0.000020 -0.000089 -0.000000 2.465883 -1.576101 2.681902 -51.670880 173.286216 22.114701 3.217804 -1.871749 1.916359 153.516548 -29.935746 6.067286 2.656085 -1.528615 1.514437 143.744541 -27.590491 35.075788 2.020895 -1.154072 1.115142 0.000001 0.000003 0.000004 9.109353 -0.517847 2.259746 86.618301 -15.208717 14.334317 3.700063 0.000141 -0.000443 82.522236 -16.127171 14.185582 2.850066 0.000184 0.000208 80.541502 -13.320365 11.298028 2.774863 -0.000031 -0.000025 0.000000 0.000003 -0.000003 9.533456 0.000217 -0.000080 86.330470 -13.401815 12.568632 3.700065 0.000172 -0.000371 88.516847 -13.841160 13.488066 2.950065 0.000189 -0.000180 88.816003 -16.744636 16.409852 2.952876 0.000002 0.000064 -0.000001 -0.000000 -0.000001 9.104567 -0.042838 -1.865225 86.096747 -13.071954 12.218956 3.150058 0.000211 -0.000104 91.579149 -13.070682 13.434581 2.950038 0.000179 -0.000069 92.492168 -14.433549 15.070085 2.644313 0.000048 0.000058 0.000001 0.000000 0.000002 8.077828 -0.486719 -3.806425 77.938517 -15.596705 13.117939 3.600011 0.000196 0.014573 81.637303 -13.521723 12.136022 2.100051 0.000190 0.007540 84.480281 -12.485243 11.785745 2.125502 -0.000016 0.007512 -0.000001 0.000001 0.000001 -8.207786 -6.751667 -1.599560 -0.077001 -0.000003 0.000080 -0.000002 -44.370110 0.345938 0.153719 -0.000000 -0.000000 0.000000 -44.423679 -3.043532 -0.076700 0.000000 -0.000002 -0.000006 -8.728667 10.710559 -0.000009 -0.000000 -0.000000 -0.000001 -0.000679 9.278123 0.000000 -0.000000 -0.000000 8.207792 -6.751710 -1.599556 -0.074518 -0.000003 0.000081 -0.000002 -44.370014 0.346960 0.148822 0.000002 0.000000 -0.000001 -44.423664 -3.044403 -0.074314 0.000000 -0.000002 -0.000004 -8.728671 10.710558 0.000007 -0.000000 -0.000000 0.000000 -0.000680 9.278137 -0.000000 0.000000 -0.000001 
0.000006 104.270477 1.554256 0.000010 0.000003 -0.000113 -0.000005 10.181587 0.131522 0.000001 -0.000003 0.000084 -0.000000 9.893967 -1.470711 0.000001 0.000000 -0.000000 -0.000000 9.220802 -1.370642 0.000000 -0.000000 -0.000000 0.000001 16.740433 -2.049030 0.000000 -0.000000 -0.000000 0.000000 9.617859 1.685014 0.000000 0.000000 0.000000 0.000002 22.037384 7.501101 0.000000 -0.000000 0.000000 -4.569968 11.014880 -2.160881 0.000008 0.000001 -0.000038 -10.592869 -0.524678 -2.232020 70.416102 7.685998 -5.427591 -27.841518 -0.000005 0.000534 -53.426098 115.548810 77.202721 -28.328802 0.000021 0.000022 -0.000319 -0.000044 0.000006 -2.464411 -1.573822 2.682346 -43.299045 -160.891335 1.132275 -3.215289 -1.872609 1.924678 154.051119 29.929612 -6.326846 -2.654961 -1.527855 1.513081 143.890475 27.689732 -34.958981 -2.018826 -1.152003 1.108059 -0.000000 0.000001 0.000002 -9.108376 -0.517554 2.260106 97.200265 15.375244 -17.462384 -3.700073 0.000316 0.001502 94.245129 13.732229 -14.752614 -2.850078 0.000373 -0.000273 93.450430 10.292086 -10.926604 -2.772162 -0.000017 -0.000021 -0.000001 -0.000001 0.000002 -9.532578 0.000282 0.000237 95.345609 12.690900 -14.072917 -3.700063 0.000338 0.003959 93.577710 10.611751 -11.192713 -2.950060 0.000323 -0.001797 94.537946 9.964557 -10.774575 -2.946612 0.000001 -0.000157 0.000002 -0.000002 0.000001 -9.103693 -0.042737 -1.864868 96.115972 12.697684 -14.069778 -3.379323 0.000336 -0.000806 95.532825 7.942662 -8.764920 -2.889768 0.000353 0.000646 98.312527 6.114138 -7.122186 -2.638800 -0.000018 0.000935 -0.000006 0.000000 0.000003 -8.076735 -0.486363 -3.805999 93.119794 13.448298 -14.040579 -3.600026 0.000278 -0.003507 95.168789 5.995621 -6.185585 -2.100017 0.000312 -0.005475 97.319254 3.063083 -3.241510 -2.115768 -0.000028 -0.003673 -0.000000 -0.000001 -0.000003 4.570446 11.014691 -2.160851 -0.000018 0.000010 -0.000021 10.592356 -0.524559 -2.232259 67.979056 16.879291 -11.425702 27.841839 0.000120 -0.000204 108.012584 -63.546222 80.908358 28.328808 -0.000028 0.000028 0.000022 -0.000089 0.000000 2.466082 -1.576165 2.681907 -26.987549 158.634367 -35.954560 3.217853 -1.871810 1.916390 161.910604 -25.889106 25.994585 2.656121 -1.528676 1.514482 143.375670 -26.562346 50.744586 2.020887 -1.154066 1.115138 0.000001 0.000004 0.000004 9.109381 -0.517862 2.259756 87.737892 -17.877233 17.183424 3.700036 0.000165 -0.000445 85.777368 -11.979919 11.149127 2.850028 0.000210 0.000199 84.247153 -9.161778 8.287233 2.774881 -0.000031 -0.000032 -0.000001 -0.000002 -0.000000 9.533461 0.000220 -0.000089 88.399020 -16.970139 16.500294 3.700033 0.000197 -0.000384 91.151839 -10.110649 10.312216 2.950050 0.000195 -0.000195 91.720623 -10.249831 10.563567 2.952874 -0.000015 0.000071 0.000001 -0.000000 -0.000000 9.104584 -0.042843 -1.865221 88.535972 -15.992949 15.596354 3.150042 0.000231 -0.000100 94.409607 -10.413722 11.244463 2.950021 0.000194 -0.000069 96.119394 -9.409005 10.467970 2.644339 0.000033 0.000061 -0.000001 -0.000002 0.000001 8.077841 -0.486710 -3.806394 83.012084 -17.917101 16.411758 3.599984 0.000186 0.014553 85.196583 -14.700935 14.005099 2.100045 0.000184 0.007545 86.479026 -11.076092 10.868098 2.125492 -0.000031 0.007508 0.000000 -0.000000 0.000001 -8.207786 -6.751667 -1.599560 -0.077001 -0.000003 0.000080 -0.000002 -44.370110 0.345938 0.153719 -0.000000 -0.000000 0.000000 -44.423679 -3.043532 -0.076700 0.000000 -0.000002 -0.000006 -8.728667 10.710559 -0.000009 -0.000000 -0.000000 -0.000001 -0.000679 9.278123 0.000000 -0.000000 -0.000000 8.207792 -6.751710 -1.599556 -0.074518 -0.000003 0.000081 -0.000002 -44.370014 0.346960 0.148822 0.000002 0.000000 -0.000001 -44.423664 -3.044403 -0.074314 0.000000 -0.000002 -0.000004 -8.728671 10.710558 0.000007 -0.000000 -0.000000 0.000000 -0.000680 9.278137 -0.000000 0.000000 -0.000001 
0.000006 104.270477 1.554256 0.000010 0.000003 -0.000113 -0.000005 10.181587 0.131522 0.000001 -0.000003 0.000084 -0.000000 9.893967 -1.470711 0.000001 0.000000 -0.000000 -0.000000 9.220802 -1.370642 0.000000 -0.000000 -0.000000 0.000001 16.740433 -2.049030 0.000000 -0.000000 -0.000000 0.000000 9.617859 1.685014 0.000000 0.000000 0.000000 0.000002 22.037384 7.501101 0.000000 -0.000000 0.000000 -4.569968 11.014880 -2.160881 0.000008 0.000001 -0.000038 -10.592877 -0.524708 -2.231984 68.518641 13.783894 -9.412728 -27.841507 0.000025 0.000553 -49.107387 110.465872 66.700957 -28.328840 0.000007 0.000032 -0.000319 -0.000044 0.000006 -2.464411 -1.573777 2.682345 -45.486478 -163.456672 -3.746433 -3.215291 -1.872598 1.924674 154.858953 29.065655 -11.804070 -2.654956 -1.527872 1.513062 147.533275 27.265115 -32.608819 -2.018849 -1.152018 1.108060 -0.000001 0.000002 0.000002 -9.108369 -0.517561 2.260119 99.023311 16.063685 -18.824744 -3.700070 0.000324 0.001513 96.644991 13.259038 -14.849714 -2.850068 0.000370 -0.000272 95.324996 9.530407 -10.454094 -2.772163 -0.000000 -0.000018 0.000001 0.000000 -0.000000 -9.532572 0.000277 0.000246 95.889408 13.037316 -14.589870 -3.700049 0.000328 0.003982 95.826666 10.704080 -11.741204 -2.950057 0.000340 -0.001820 95.643679 9.673581 -10.663471 -2.946620 0.000000 -0.000153 0.000000 0.000000 0.000001 -9.103663 -0.042739 -1.864858 96.454880 12.716876 -14.174311 -3.379325 0.000326 -0.000781 96.341376 9.915336 -11.090863 -2.889756 0.000340 0.000636 97.796718 7.558282 -8.712398 -2.638826 -0.000029 0.000942 0.000003 -0.000000 0.000001 -8.076723 -0.486371 -3.805978 93.695435 13.953852 -14.718561 -3.600039 0.000289 -0.003475 97.129088 8.547350 -9.275563 -2.100008 0.000318 -0.005456 98.959797 5.301929 -5.946328 -2.115761 -0.000043 -0.003675 0.000000 -0.000001 -0.000003 4.570446 11.014691 -2.160851 -0.000018 0.000010 -0.000021 10.592359 -0.524556 -2.232242 67.376019 15.500515 -10.367922 27.841843 0.000112 -0.000190 110.029293 -64.714458 84.311008 28.328856 -0.000044 0.000023 0.000022 -0.000089 -0.000000 2.466168 -1.576147 2.681871 -11.518855 159.488523 -64.931255 3.217877 -1.871826 1.916408 161.027761 -23.158204 38.234535 2.656114 -1.528643 1.514475 145.053438 -26.168994 49.205393 2.020888 -1.154065 1.115156 0.000001 0.000001 -0.000003 9.109390 -0.517853 2.259756 91.744091 -18.990275 19.553066 3.700030 0.000185 -0.000474 90.936018 -12.806108 13.032382 2.850046 0.000229 0.000200 89.507320 -9.359064 9.278032 2.774871 -0.000028 -0.000029 -0.000000 0.000001 0.000000 9.533465 0.000212 -0.000075 91.040097 -18.728993 19.056632 3.700054 0.000192 -0.000378 93.902841 -11.399406 12.194907 2.950058 0.000204 -0.000204 94.460553 -10.424069 11.266784 2.952859 -0.000017 0.000060 0.000001 -0.000002 -0.000000 9.104588 -0.042829 -1.865216 92.945310 -17.257306 18.155316 3.150043 0.000216 -0.000072 96.318583 -12.224251 13.641826 2.950024 0.000216 -0.000082 96.943320 -9.929974 11.206856 2.644338 0.000050 0.000059 0.000003 0.000002 0.000001 8.077847 -0.486696 -3.806417 87.613712 -18.770751 18.592326 3.600009 0.000186 0.014580 88.396916 -16.523443 16.585205 2.100029 0.000196 0.007542 88.398200 -12.098336 12.236409 2.125494 -0.000000 0.007510 -0.000001 -0.000001 -0.000002 -8.207786 -6.751667 -1.599560 -0.077001 -0.000003 0.000080 -0.000002 -44.370110 0.345938 0.153719 -0.000000 -0.000000 0.000000 -44.423679 -3.043532 -0.076700 0.000000 -0.000002 -0.000006 -8.728667 10.710559 -0.000009 -0.000000 -0.000000 -0.000001 -0.000679 9.278123 0.000000 -0.000000 -0.000000 8.207792 -6.751710 -1.599556 -0.074518 -0.000003 0.000081 -0.000002 -44.370014 0.346960 0.148822 0.000002 0.000000 -0.000001 -44.423664 -3.044403 -0.074314 0.000000 -0.000002 -0.000004 -8.728671 10.710558 0.000007 -0.000000 -0.000000 0.000000 -0.000680 9.278137 -0.000000 0.000000 -0.000001 
